<svg width="24" height="24" viewBox="0 0 24 24" fill="none" xmlns="http://www.w3.org/2000/svg">
  <circle cx="12" cy="12" r="10" stroke="currentColor" stroke-width="2" fill="none"/>
  <polyline points="12,6 12,12" stroke="currentColor" stroke-width="2" stroke-linecap="round" stroke-linejoin="round"/>
  <!-- "HRS" drawn as paths - MAUI 10.0.110 resizetizer crashes rasterizing svg <text> -->
  <path d="M7.5 12.9V17M9.9 12.9V17M7.5 14.95H9.9M10.9 17V12.9H12.15A1.05 1.05 0 0 1 12.15 15H10.9M12.1 15L13.2 17M16.4 13.4C16.1 13 15.7 12.9 15.3 12.9C14.6 12.9 14.2 13.3 14.2 13.9C14.2 15.1 16.5 14.7 16.5 16C16.5 16.6 16 17 15.3 17C14.8 17 14.4 16.8 14.1 16.4" stroke="currentColor" stroke-width="1.1" stroke-linecap="round" stroke-linejoin="round" fill="none"/>
  <circle cx="12" cy="12" r="1" fill="currentColor"/>
</svg>
